<?xml version="1.0" standalone="no"?>
<!DOCTYPE svg PUBLIC "-//W3C//DTD SVG 20010904//EN"
 "http://www.w3.org/TR/2001/REC-SVG-20010904/DTD/svg10.dtd">
<svg version="1.0" xmlns="http://www.w3.org/2000/svg"
 width="536.000000pt" height="490.000000pt" viewBox="0 0 536.000000 490.000000"
 preserveAspectRatio="xMidYMid meet">

<g transform="translate(0.000000,490.000000) scale(0.100000,-0.100000)"
fill="#000000" stroke="none">
<path d="M2380 4676 c-74 -26 -141 -59 -185 -90 -16 -11 -56 -35 -89 -52 -58
-31 -58 -32 -35 -44 13 -7 25 -14 27 -15 2 -2 -8 -26 -23 -55 -29 -56 -47
-180 -26 -180 6 0 11 5 11 12 0 32 12 -8 21 -66 11 -78 36 -147 48 -128 8 14
47 18 78 8 21 -7 21 -6 16 69 l-6 75 34 -6 c39 -8 50 -14 26 -14 -11 0 -17 -8
-17 -22 1 -56 40 -62 62 -11 7 15 17 31 22 34 15 11 -31 29 -74 29 l-42 0 5
36 c6 43 17 57 17 21 0 -20 6 -28 25 -33 14 -4 29 -4 32 0 4 3 -2 6 -12 6 -15
0 -17 6 -12 38 3 20 11 51 17 67 l13 30 8 -36 c5 -20 19 -61 32 -90 25 -55 85
-144 93 -137 2 2 -1 20 -6 39 -9 32 3 157 28 294 l7 40 21 -36 c32 -54 65
-149 62 -178 -2 -18 2 -27 14 -29 12 -2 15 2 12 20 -3 18 -1 16 10 -7 l14 -30
-55 -6 c-56 -7 -99 -29 -55 -29 16 0 22 -6 22 -22 0 -13 4 -28 8 -35 13 -20
50 -3 64 28 7 16 16 29 19 29 4 0 10 -32 14 -71 4 -39 11 -67 15 -62 5 4 16
33 24 63 12 40 15 45 12 20 -4 -38 1 -60 13 -60 5 0 6 11 4 24 -3 13 3 39 13
57 10 19 17 39 16 44 -1 6 5 1 13 -9 21 -27 19 -85 -5 -123 -15 -26 -26 -33
-51 -33 -26 0 -29 -2 -19 -15 16 -20 4 -50 -36 -90 -19 -19 -31 -35 -25 -35
12 0 81 77 81 92 0 6 14 23 30 37 17 14 37 43 44 65 l13 39 22 -22 c11 -11 21
-32 21 -44 0 -26 -44 -92 -81 -123 -35 -28 -68 -69 -49 -60 8 4 6 1 -4 -6 -11
-7 -45 -36 -76 -64 -68 -61 -112 -78 -190 -72 -33 2 -57 1 -54 -4 9 -14 73
-20 121 -10 26 6 49 9 51 7 9 -8 -62 -46 -110 -59 -75 -19 -238 -102 -295
-149 -167 -137 -253 -334 -208 -474 9 -28 -20 -47 -111 -74 -189 -55 -308 -62
-440 -29 -43 11 -97 32 -119 47 -71 46 -145 115 -151 139 -8 30 -24 32 -24 3
0 -49 175 -177 282 -207 139 -38 372 -14 527 55 l55 23 30 -29 c36 -35 142
-84 310 -145 305 -110 637 -160 804 -121 115 27 268 105 348 177 22 19 22 19
42 -9 20 -29 62 -108 62 -118 0 -3 -13 4 -30 16 -55 41 -43 11 24 -58 36 -37
66 -71 66 -74 0 -4 -30 2 -66 13 -36 10 -71 17 -77 15 -7 -2 22 -15 63 -27 84
-26 192 -77 260 -124 47 -32 73 -35 168 -22 53 7 85 27 139 84 65 70 70 90 39
156 -28 59 -36 65 -56 41 -23 -28 -47 -18 -53 21 -4 20 -15 46 -26 58 l-20 21
34 60 c38 66 50 49 15 -20 -27 -53 -25 -66 5 -32 22 24 27 26 47 16 104 -55
295 -227 347 -312 13 -21 26 -36 29 -33 11 11 -73 119 -142 182 -39 36 -112
93 -163 127 l-92 62 -1 52 c0 29 7 78 15 110 8 31 15 66 14 78 0 11 -7 -5 -14
-35 -25 -101 -75 -197 -168 -318 -44 -58 -44 -82 0 -34 l28 30 35 -29 c30 -25
31 -29 13 -29 -34 0 -47 -24 -28 -53 18 -29 38 -39 60 -31 26 10 28 -39 5 -95
-18 -41 -27 -51 -46 -51 -28 0 -29 6 -9 53 8 20 15 42 15 50 0 17 -59 111 -66
104 -3 -3 7 -23 21 -45 30 -45 29 -75 -6 -144 -26 -51 -46 -49 -169 15 -83 43
-108 63 -141 105 -21 29 -39 58 -39 65 0 30 -41 119 -93 200 -105 165 -118
236 -64 339 18 35 36 72 40 83 8 18 7 18 -13 0 -39 -35 -20 5 22 45 47 45 41
52 -14 15 -24 -16 -41 -39 -51 -67 -25 -72 -37 -136 -37 -191 l0 -52 -45 92
c-37 75 -63 110 -150 202 -113 120 -124 136 -151 226 -18 57 -19 58 -22 26 -4
-42 21 -111 56 -153 l27 -32 -68 38 c-37 21 -67 33 -67 27 0 -6 19 -20 43 -32
70 -36 149 -94 194 -141 78 -84 143 -204 143 -264 0 -15 6 -24 15 -24 8 0 15
5 15 10 0 25 19 6 38 -37 11 -27 31 -66 44 -87 14 -24 19 -40 12 -43 -6 -2
-42 -24 -80 -50 -188 -125 -360 -164 -577 -133 -199 30 -402 84 -563 151 -54
22 -121 49 -148 60 -122 46 -160 139 -120 292 37 145 175 298 339 376 44 21
96 42 115 46 73 16 121 46 197 123 43 43 104 93 135 111 63 35 85 57 43 41
-15 -6 -36 -15 -48 -22 -12 -6 6 19 41 56 70 75 76 98 37 144 -25 29 -25 33
-23 174 2 145 2 145 -30 210 -32 66 -94 131 -167 176 -48 29 -120 29 -205 -2z
m-220 -561 c0 -14 -4 -25 -10 -25 -5 0 -10 11 -10 25 0 14 5 25 10 25 6 0 10
-11 10 -25z m1820 -1278 c24 -43 1 -43 -59 0 -8 5 22 34 33 30 6 -2 18 -15 26
-30z m110 -87 c0 -13 -1 -13 -10 0 -5 8 -10 22 -10 30 0 13 1 13 10 0 5 -8 10
-22 10 -30z m-102 -21 c16 -24 12 -32 -12 -23 -9 3 -16 15 -16 25 0 25 12 24
28 -2z m72 0 c0 -6 -4 -7 -10 -4 -5 3 -10 11 -10 16 0 6 5 7 10 4 6 -3 10 -11
10 -16z m49 -36 c0 -25 -1 -26 -9 -8 -12 27 -12 35 0 35 6 0 10 -12 9 -27z
m-39 -13 c0 -21 -46 -120 -55 -120 -3 0 2 14 11 32 10 20 14 45 11 70 -4 32
-2 38 14 38 12 0 19 -7 19 -20z"/>
<path d="M2508 4253 c6 -2 18 -2 25 0 6 3 1 5 -13 5 -14 0 -19 -2 -12 -5z"/>
<path d="M3190 4081 c0 -4 26 -11 58 -14 31 -3 68 -9 82 -12 14 -3 9 1 -10 8
-44 17 -130 29 -130 18z"/>
<path d="M3025 4070 c-12 -5 1 -6 35 -3 30 3 57 7 59 9 9 8 -75 2 -94 -6z"/>
<path d="M2155 4050 c-3 -5 -1 -10 4 -10 6 0 11 5 11 10 0 6 -2 10 -4 10 -3 0
-8 -4 -11 -10z"/>
<path d="M2370 4040 c0 -5 5 -10 11 -10 5 0 7 5 4 10 -3 6 -8 10 -11 10 -2 0
-4 -4 -4 -10z"/>
<path d="M2856 4029 c20 -22 22 -18 -44 -99 -42 -52 -87 -128 -80 -136 2 -2
26 31 54 72 46 72 87 116 144 157 25 17 24 17 -9 1 -31 -15 -34 -15 -48 5 -8
12 -19 21 -25 21 -6 0 -3 -9 8 -21z"/>
<path d="M3406 4015 c6 -13 10 -15 104 -41 30 -8 83 -31 118 -50 35 -20 66
-34 68 -31 7 6 -174 97 -194 97 -9 0 -36 9 -59 19 -30 14 -40 16 -37 6z"/>
<path d="M2149 3985 c-23 -37 -15 -154 12 -171 4 -2 4 9 -2 25 -6 16 -9 44 -7
61 l3 32 29 -39 c16 -21 41 -47 55 -58 15 -11 6 3 -19 32 -26 29 -50 67 -56
89 -5 22 -12 35 -15 29z"/>
<path d="M2394 3980 c18 -6 66 -2 66 6 0 1 -19 2 -42 2 -29 0 -37 -3 -24 -8z"/>
<path d="M2226 3936 c6 -15 34 -30 34 -18 0 4 -9 13 -20 19 -16 11 -18 10 -14
-1z"/>
<path d="M2398 3943 c7 -3 16 -2 19 1 4 3 -2 6 -13 5 -11 0 -14 -3 -6 -6z"/>
<path d="M1745 3930 c-3 -6 1 -7 9 -4 18 7 21 14 7 14 -6 0 -13 -4 -16 -10z"/>
<path d="M2466 3865 c-24 -18 -69 -19 -99 -3 -19 10 -20 9 -9 -4 20 -25 63
-28 104 -7 21 11 38 22 38 24 0 9 -15 5 -34 -10z"/>
<path d="M3750 3856 c0 -2 8 -10 18 -17 15 -13 16 -12 3 4 -13 16 -21 21 -21
13z"/>
<path d="M1484 3828 l-19 -23 23 19 c21 18 27 26 19 26 -2 0 -12 -10 -23 -22z"/>
<path d="M1805 3839 c-16 -5 -88 -23 -160 -40 -153 -36 -229 -62 -290 -96 -68
-38 -54 -36 33 4 78 37 396 121 462 124 19 0 46 5 60 9 36 12 -66 11 -105 -1z"/>
<path d="M3837 3786 c29 -26 64 -61 79 -79 l26 -32 -19 33 c-10 19 -38 50 -63
70 -71 56 -80 60 -23 8z"/>
<path d="M2198 3734 c15 -28 55 -53 95 -59 30 -5 29 -4 -13 16 -25 12 -56 31
-69 43 l-24 21 11 -21z"/>
<path d="M3961 3636 c12 -20 23 -36 25 -36 7 0 -25 58 -36 65 -5 3 -1 -10 11
-29z"/>
<path d="M1259 3643 c-13 -16 -12 -17 4 -4 9 7 17 15 17 17 0 8 -8 3 -21 -13z"/>
<path d="M1209 3603 l-24 -28 28 24 c25 23 32 31 24 31 -2 0 -14 -12 -28 -27z"/>
<path d="M3925 3465 c14 -92 30 -155 38 -155 15 0 -2 99 -24 145 -17 37 -19
37 -14 10z"/>
<path d="M4051 3435 c0 -11 4 -29 9 -40 l9 -20 0 20 c0 11 -4 29 -9 40 l-9 20
0 -20z"/>
<path d="M4073 3290 c0 -41 2 -58 4 -37 2 20 2 54 0 75 -2 20 -4 3 -4 -38z"/>
<path d="M1124 3275 c-12 -31 60 -81 102 -71 28 7 30 18 9 36 -12 10 -15 9
-15 -4 0 -13 -5 -16 -22 -11 -27 8 -68 45 -50 45 7 0 12 5 12 10 0 16 -30 12
-36 -5z"/>
<path d="M2793 2963 c-20 -7 -15 -19 12 -31 31 -14 75 -15 95 -2 11 7 2 10
-32 10 -36 0 -48 4 -48 15 0 15 -6 17 -27 8z"/>
<path d="M3840 2741 c-5 -11 -10 -29 -10 -39 0 -15 -5 -19 -20 -15 -11 3 -20
11 -20 17 0 7 -7 21 -16 32 -15 18 -15 17 -10 -13 3 -18 1 -35 -4 -38 -22 -14
-8 -23 29 -18 32 4 41 1 55 -18 l17 -24 -7 28 c-10 44 -10 62 2 60 7 -1 14 9
17 22 5 30 -17 34 -33 6z"/>
<path d="M3878 2688 c5 -5 16 -8 23 -6 8 3 3 7 -10 11 -17 4 -21 3 -13 -5z"/>
<path d="M340 2530 c-12 -16 -19 -30 -16 -30 2 0 14 14 26 30 12 17 19 30 16
30 -2 0 -14 -13 -26 -30z"/>
<path d="M300 2470 c-6 -11 -8 -20 -6 -20 3 0 10 9 16 20 6 11 8 20 6 20 -3 0
-10 -9 -16 -20z"/>
<path d="M271 2413 c-10 -26 -10 -27 4 -9 8 11 15 23 15 28 0 15 -7 8 -19 -19z"/>
<path d="M4510 2416 c14 -38 17 -121 6 -166 -8 -34 -7 -34 10 -17 15 14 19 33
19 92 0 64 -3 78 -23 97 l-23 23 11 -29z"/>
<path d="M3765 2390 c-33 -21 -118 -73 -190 -116 -158 -94 -169 -102 -414
-329 -205 -190 -362 -359 -429 -460 -218 -332 -299 -501 -309 -643 -4 -54 -2
-74 5 -67 6 6 12 28 14 50 l3 40 18 -40 c10 -21 25 -47 33 -56 14 -15 11 -24
-25 -96 -44 -89 -97 -143 -169 -175 -95 -41 -527 -51 -749 -17 -284 43 -411
110 -544 286 -38 51 -74 93 -80 93 -20 0 81 -138 156 -214 l46 -45 -53 -4
c-49 -3 -48 -3 15 -5 52 -2 79 -8 110 -26 61 -35 181 -76 267 -92 242 -43 729
-40 838 6 l52 23 88 -40 c119 -54 136 -60 220 -78 65 -13 162 -21 107 -8 -148
34 -235 61 -307 95 l-87 41 41 46 c22 25 54 74 69 108 l29 62 43 -47 c23 -26
68 -78 99 -117 71 -87 171 -185 221 -214 50 -30 47 -21 -4 15 -37 26 -151 146
-279 295 -72 83 -119 158 -135 214 -17 57 -17 56 43 200 85 202 365 587 552
758 30 27 105 97 167 154 108 101 114 105 180 120 37 8 120 17 184 20 99 5
133 2 240 -20 68 -15 189 -38 269 -52 329 -59 631 -196 867 -393 91 -75 97
-89 104 -232 l5 -125 2 126 c1 69 -1 128 -4 132 -4 3 -8 23 -9 45 -4 53 -57
206 -104 302 -83 170 -230 356 -348 440 -34 25 -19 6 52 -62 96 -93 99 -97 80
-112 -26 -19 -148 -30 -237 -22 -68 6 -132 27 -435 144 -72 28 -165 59 -207
68 l-76 18 30 19 c17 10 30 21 30 23 0 11 -31 -2 -85 -36z"/>
<path d="M191 2204 c0 -11 3 -14 6 -6 3 7 2 16 -1 19 -3 4 -6 -2 -5 -13z"/>
<path d="M183 2145 c0 -22 2 -30 4 -17 2 12 2 30 0 40 -3 9 -5 -1 -4 -23z"/>
<path d="M182 2020 c0 -19 2 -27 5 -17 2 9 2 25 0 35 -3 9 -5 1 -5 -18z"/>
<path d="M196 1925 c17 -172 16 -281 -5 -372 -12 -53 -21 -128 -21 -174 0 -76
3 -87 36 -146 20 -35 55 -88 78 -116 23 -29 58 -77 78 -107 58 -88 176 -203
268 -263 111 -71 216 -124 266 -132 l39 -6 -35 20 c-19 11 -45 20 -58 21 -31
0 -47 9 -181 98 -150 101 -194 142 -281 264 -41 57 -93 127 -117 156 -91 112
-102 180 -61 374 26 125 28 274 5 368 -16 63 -16 63 -11 15z"/>
<path d="M766 1378 c2 -30 9 -47 23 -57 12 -7 21 -24 21 -38 0 -13 4 -22 9
-19 13 8 -6 84 -30 123 -12 18 -22 33 -23 33 -2 0 -2 -19 0 -42z"/>
<path d="M2920 1309 c0 -25 95 -123 170 -174 38 -27 73 -46 76 -43 3 4 -22 25
-56 48 -66 45 -133 107 -168 155 -13 19 -21 24 -22 14z"/>
<path d="M5011 1096 c-12 -36 -35 -84 -50 -108 -41 -65 -43 -68 -38 -68 19 0
122 210 114 233 -1 5 -13 -21 -26 -57z"/>
<path d="M2840 1108 c0 -77 67 -210 146 -291 57 -59 53 -35 -6 30 -58 65 -105
154 -119 226 -10 55 -21 73 -21 35z"/>
<path d="M4870 850 c-12 -16 -19 -30 -16 -30 2 0 14 14 26 30 12 17 19 30 16
30 -2 0 -14 -13 -26 -30z"/>
<path d="M3174 835 c-10 -40 0 -154 15 -167 11 -11 12 -6 7 24 -4 20 -7 67 -7
103 -1 69 -5 80 -15 40z"/>
<path d="M4806 766 c-34 -40 -46 -63 -28 -52 11 6 74 96 68 96 -2 0 -21 -20
-40 -44z"/>
<path d="M4766 685 c-9 -26 -7 -32 5 -12 6 10 9 21 6 23 -2 3 -7 -2 -11 -11z"/>
<path d="M4741 623 c-10 -26 -10 -27 4 -9 8 11 15 23 15 28 0 15 -7 8 -19 -19z"/>
<path d="M4692 550 c-18 -22 -52 -51 -76 -65 -78 -46 -458 -197 -570 -227
-103 -27 -165 -36 -516 -73 l-135 -14 145 4 c232 7 528 63 706 133 189 76 399
173 424 197 22 21 66 85 58 85 -2 0 -18 -18 -36 -40z"/>
<path d="M2945 314 c52 -42 276 -125 331 -123 10 0 -21 11 -71 25 -49 13 -133
45 -185 69 -52 25 -86 38 -75 29z"/>
<path d="M3313 183 c9 -2 23 -2 30 0 6 3 -1 5 -18 5 -16 0 -22 -2 -12 -5z"/>
</g>
</svg>
